<?xml version="1.0" encoding="UTF-8"?>
<svg id="Layer_1" data-name="Layer 1" xmlns="http://www.w3.org/2000/svg" viewBox="0 0 196.4572 82.4447">
  <g>
    <polygon points="53.0159 71.8685 52.8825 71.8602 52.8698 72.2162 53.0159 71.8685" fill="#3e4144"/>
    <path d="M52.1693,73.361c.0666.0053.0993.0798.167.0848l.2398-1.1808c-.5891-.0402-.0089,1.1276-.4068,1.096Z" fill="#3e4144"/>
    <path d="M51.9066,73.4842c-.393.1046-.2924.4666-.2844.6138-.0697-.289.5879-.3748.2844-.6138Z" fill="#3e4144"/>
    <path d="M40.1477,68.434c-.012.0326-.0211.0786-.0245.1147.033-.0493.0375-.0879.0245-.1147Z" fill="#3e4144"/>
    <path d="M42.6363,60.0944l-.2147-.198c-.2236,1.6719-1.4401,3.1157-1.9558,4.7562l-.0407-.1457c-1.8905,3.8777-3.1826,7.8112-3.5592,12.0578-.021-.0696-.0992-.1031-.1225-.176.0697.2191.2178.4651.1657.6888-.0688.0526-.12-.0775-.1388-.1544-.5881.8695.1424,2.6436-.1562,3.1994.0632.2519.2681.3319.3996.1867.0907.7473.3722,1.5801.8167,1.9135.504.3806,1.0527.238,1.7882-.1699,1.5018-.8267,2.9807-1.7664,4.3315-2.7815.1717-.0285.2617.0634.3048.2218,2.0886-2.1199,4.6938-3.5815,7.0669-5.3517-.0363-.2233-.3625.0279-.2667-.3125-.8796.3993-1.0582,1.4502-1.9604,1.6804l-.0244-.216c-.5719.2698.1818.4571-.4828.6439-.2977.0229-.0903-.2321-.1938-.1734-1.0235.8403-2.2512,1.4665-3.0565,2.5201-.4755-.1783-1.215.7433-1.8386.6521-.2104.3141-.5271.4515-.5055.7499-1.0302.5313-2.0658,1.0654-3.1058,1.6018-.5248.2807-1.0282.5158-1.2404.5461-.1825.0446-.392-.0211-.5247-.1746-.1615-.1741-.36-.6414-.4411-1.1089-.0843-.4534-.1138-1.0787-.129-1.6273-.0225-1.1328.0782-2.2811.3092-3.4147-.1811-1.1422.1743-2.331.6739-3.498.4997-1.1735,1.1405-2.3383,1.5389-3.6105.0329-.0058.0593.0089.0737.0343.1554-.8728.5936-2.0703,1.1185-2.9784l.0645-.9444c3.2533-5.4334,5.4981-11.4815,8.4267-17.1728,3.0597-6.2113,6.0864-11.5387,8.1049-17.9798l1.1006-3.5118-2.3649,2.5236c-.2193.234-.4506.4809-.6831.729-.041-.0656-.1126-.0627.0097-.2033-1.4956,1.4095-3.1127,2.3878-4.4713,3.7729l-.0463-.0634c-3.2045,3.6028-7.5069,6.5815-10.2772,10.3483-1.0937,1.0689-2.2119,2.1913-3.3335,3.3728-.2739.2892-.5496.5805-.8272.8736l-.712.7732c-.4834.5381-.9727,1.0827-1.4671,1.6331-.0675.1114-.0481-.0398-.0628-.0882l-.0247-.2055-.0503-.415-.0996-.8473c-.0504-.5889-.1011-1.1821-.152-1.7766-.0914-1.3291-.1557-2.714-.2116-4.0544l.1569.0133c-.3301-4.7489.7221-9.2909.8201-14.0088.6063-4.0048.2186-9.1559.7884-12.624l.0197-.1289c.0085-.0479.0195-.1025-.0132-.0431l-.1266.1742-.2463.325c-.1616.2065-.3196.3958-.4803.5761-.264.0481-.8255.7935-1.3551,1.6568-.5404.8729-1.0568,1.8454-1.4571,2.6453-.7656,1.5634-1.5271,3.1127-2.6386,4.0891-4.2103,4.2566-6.6334,9.4482-9.3,14.7183-3.3642,4.2397-5.559,9.3222-9.4335,12.982-1.053,2.3295-3.7454,3.7009-5.3866,5.8979l.2116.0501c-1.0659.3838-.8232,2.2073-1.8882,2.0946l.0393-.1042c-.6778.0908-.0283,1.6135-.6337,1.4976l.1055.2122c-.3866.5114-.2337-.1122-.636.1842-.1076.152.2448.3241-.1148.517-.7119-.5593-.9394,1.2628-1.6955.5892.238-.2485-.6533.1146-.2712-.5904-.2261.086-.9158.8786-.5474,1.1151.2574.3855.2464.9644.9502.7511l-.1449-.3285c.3869.076.2329-.0032.4641.1154.6201-.5836,1.0458-.3301,1.6172-.6371-.0113-.0023-.0221-.0044-.0279-.0229.0021-.5775.5743-.8334.8469-1.0361l.2257.0266c.4206.1091.087-1.2364.4056-.5959.5165-.706,1.1059-1.4293,1.7267-2.1587.6058-.7394,1.2276-1.4985,1.8415-2.2479-.0165-.3643.9584-1.13.313-1.1084.7298-.0307,1.7327-1.0768,2.0471-1.5103.0284.0476.0609.102-.0072.155,1.2113-.3765.2392-1.3691,1.5176-1.6128-.4034-.4962,1.2212-1.2929.9666-2.1687.1828-.0134.3068.0288.3693.1295,1.051-1.3964,2.3623-2.8314,3.2427-4.0207.276-1.3482,1.9656-2.3588,1.9557-3.6832.6362-.6506,1.7188-1.6731,2.1717-2.8799l.0088.1527c.749-1.1991,1.7008-2.6873,1.8426-3.7549.8298.0499,1.0459-.5394,1.5742-.922.2419-.9703,1.3697-2.5055,1.8984-3.8756.3984-.0029.5298-1.0696.9747-.868.7083-1.9397,1.8045-3.9093,3.0933-5.792.6434-.9424,1.3358-1.8627,2.0525-2.7449.3579-.4417.7212-.8745,1.0867-1.2969.1307-.1318.135-.0667.1941-.082.0439.0077.0783.033.1019.077l.0107.0459c-.0446-.1727-.0754-.5113-.0348-.9747.0372-.4584.1462-1.0423.2909-1.5699.014.0549-.0058.2296-.0469.2871.1507-.3084.2685-.313.3342-.2326.0723.0687.089.2199.2291-.0676-.0723.2525-.0746.256-.1681.5331.3701-.8874-.0279.5509.3185-.2798.0262-.0568.0541-.1172.0823-.1782l-.1881.5009c.079-.1693.1554-.3202.2293-.4526-.2239.5454-.5629,1.3788-.4811,1.1373-.1056.4917-.1046.6857-.0914,1.0461l.0156.2964.0043.0853-.0192.3212-.0348.6461c-.0356.8621-.0713,1.7262-.1071,2.5916-.1175,3.4627-.1618,6.942-.3499,10.4085l-.1418-.2603.2217,1.3551c-.0802-.0099-.1171-.075-.1507-.1404-.3251,1.7095.0996,3.5014.0343,5.1728-.0776-.0073-.2354-.2611-.3201-.0255.4561,1.2361-.5501,2.0112.3836,2.6126-.0399.0589-.2416.1049-.3189-.0199.1219,1.1252.2446,2.2578.3679,3.396l.2106,1.9258.11.9602.053.4819.026.2418.0129.1211c.0085.0272.0246.0305.0365.0469.8306-.9118,1.6415-1.7999,2.4873-2.681l1.2806-1.3327.9568-.94c1.3887-2.6435,4.1778-4.393,5.8842-6.9119l.1019.1281c2.4033-3.084,5.867-5.3795,8.8502-8.0363,1.3121-1.0206,2.0585-1.8797,3.3531-2.9373l.1599.1321c.0833-.116.1706-.2283.2637-.3391l-.3885-.3036c-.6384,2.6777-3.0375,4.8135-3.4671,7.6893l-.1667-.2995c.1994.5926-.8784,1.5515-.1397,1.6994l-.4183.3784c.0482,2.2175-1.9214,3.1134-2.3703,5.5977l-.0911-.2186c-.1486.647-.3674,1.3805-.7135,1.7515.0084-.0789-.0528-.0683-.0299-.2279-1.4758,1.5628-1.7299,3.9397-2.6503,5.8808l-.1928-.3565c-.0878,1.1024-1.2043,2.6855-1.6158,3.9985l-.1035-.1388-.093.7172-.2865-.1118c-.7602,1.6057-1.217,3.2354-1.9077,4.8259Z" fill="#3e4144"/>
    <path d="M36.7702,76.923c.0039-.0047.0048-.0125.012-.0175-.02-.0554-.0202-.0295-.012.0175Z" fill="#3e4144"/>
    <path d="M3.1912,63.8421c-.0708.0476-.1322.0842-.1984.1171.0568.0307.1395-.0752.1984-.1171Z" fill="#3e4144"/>
  </g>
  <g>
    <polygon points="80.2014 62.1458 80.2381 62.0556 80.0305 62.2246 80.2014 62.1458" fill="#3e4144"/>
    <path d="M79.5157,62.3516c-.0184.045-.0702.1037-.0886.1492l.6443-.4413c.1641-.4025-.666.5607-.5556.2921Z" fill="#3e4144"/>
    <path d="M79.5025,62.2473c.0273-.1966-.2147.0573-.3038.1375.1896-.1948.0939.1752.3038-.1375Z" fill="#3e4144"/>
    <path d="M72.85,57.0327c.0077.0048.023.0056.037.0036-.0035-.0182-.018-.0166-.037-.0036Z" fill="#3e4144"/>
    <path d="M70.4384,56.3351l-.2148.1777c.6435-.046.622.6426,1.0957.7953l-.0895.0494c.7365.866,1.825,1.2165,2.8004,1.7713-.0323.0113-.0898.0697-.1244.0827.1035-.0388.2637-.1358.294-.0791-.0281.0571-.0961.0873-.1291.0964-.117.5017.7111.221.5964.5856.0822.0041.2268-.1254.2911-.2603.7402.4584,1.5177.9668,2.4298,1.2235-.0053.0755-.076.1788-.1825.2965,1.0523-.1284,1.4889.5852,2.0334,1.1451.1418-.1385.0627-.2128.2457-.3292-.0489-.3439-.6507.1086-.6141-.3102l.1372-.1326c-.0563-.195-.3149.3586-.3022.0628.0427-.1658.1592-.1811.143-.211-.3211-.1493-.5013-.5038-1.0402-.3397.1878-.3733-.2859-.2381-.1458-.6254-.1693.0723-.2138-.0158-.4081.177-.8154-.9147-2.0181-1.3805-2.9358-2.2055-.9547.2166-.8524-.9474-1.5241-1.2137.0156-.0237.0366-.0451.0558-.0591-.2974-.0056-.5994-.1615-.7209-.4187l-.395.0838c-.6672-1.6049-2.118-2.4635-2.9694-3.8983-.2674-.3797-.4947-.7777-.7288-1.1559l-.3498-.5633-.1805-.2735-.0932-.1337-.1691-.2219c-.9024-1.1876-2.0422-2.4508-2.7324-2.4843-.0144-.1429-.0376-.2419-.0014-.2483-.17-.1184-.3387-.3398-.5187-.6002l-.2725-.402c-.096-.1495-.1347-.1081-.1999-.1498-.0243.1858-.0398.4084-.0365.6851l-.0539-.1883c.0909,1.7523-.057,2.4828-.247,3.3845-.208.8604-.4689,1.6394-.3131,2.2418-.5559,1.3162-1.2125,2.7765-1.9135,4.1484l-.1275-.0917c-.2066.5929-.6716,1.0152-1.1622,1.3484-.4983.3385-.9884.5729-1.3936.9166-.5491.0767-.9574.3682-1.61.4485-.6195.0678-1.3817-.2385-1.5904-.8897.0642-.5354-.3151-.7428-.7031-1.0774-.3837-.3143-.7206-.7498-.4012-1.1962.4467-.8503.5939-1.4315.572-2.1592-.0227-.7018-.1887-1.5015-.1831-2.3674.4929-.5628.6995-1.2483,1.0613-1.8906.3395-.6413.8404-1.2319,1.6559-1.3338.0696-.4309.4714-.5071.8821-.5078.4141-.0062.8391.0718,1.1029-.1504l-.1083-.1645c.4635.4429.1804-1.0053.6698-.2385l-.0101.0457c.2707.3781-.0659-1.0905.1951-.621l-.048-.2161c.1431-.118.0974.2301.2458.2708.0375-.0412-.1019-.3927.0361-.2975.2674.8611.3558-.2922.6095.6872-.0784.0201.2122.3507.0892.6009.0727.0887.2868-.0189.1823-.4352-.0696-.4504-.0412-.8643-.28-1.1719l.0348.3334c-.1269-.3101-.0785-.1513-.153-.3891-.2369.0146-.3862-.4457-.6183-.5927.0044.0089.0086.0174.0104.0345-.0131.4109-.2362.2301-.3471.2133l-.0949-.1627c-.1859-.345-.0228.8098-.1706.1582-.4313.3203-.9582.5495-1.4402.8415.0573.257-.3831.1919-.0255.5476-.4053-.4113-.8367-.2757-.956-.171-.0252-.0454-.054-.0976-.0214-.0948-.6907-.4017.1119.7434-.6554.2303.3618.5047-.5493.1866-.1705.8485-.1186-.0776-.2124-.1603-.2782-.2502-.3935.3368-.9459.62-1.2564.9551.1959.6239-.7694.608-.3077,1.3012-.2838.1232-.7645.3725-.6741.8417l-.0654-.0733c-.1423.4016-.3319.9123.0347,1.3395-.7184-.1258-.6442.102-.9239.2115.247.3755-.0121.9114.2367,1.3932-.3388.0167.0858.3674-.3964.3304.758,1.3126.5749,2.6429.5891,4.2645l-.0403-.0039c.3254.0582.932-.0382,1.3121-.0834-.0275.0354-.0966.0759-.1128.0448.1851.1431-.0711.594.1554.7435-.0636.0484-.0634.0488-.1479.0635.3067.0378.0418.6535.5344.5897l-.0727.1059.2603-.0097c-.1044.1201-.2635.3001-.3118.1889.4368.434,1.0546.7673,1.7327.8801.68.1092,1.3661-.0011,1.9416-.2559,1.1689-.53,1.7931-1.4007,2.4739-2.0827l.0672.1536c.017-.1561.0277-.3106.0353-.4633.0613.0522.0805.0907.097.1273.5194-.2123.4333-.8622.7406-1.1921.063.0452.1515.1891.26.1862-.1708-.5132.773-.1479.1039-.774.0438.0095.2217.1085.2648.1762.2454-.9506.6977-1.7611,1.2127-2.5596-.2191-.5221-.0861-.8952.0582-1.2783.072-.1906.142-.3835.1766-.586.0319-.1991-.0053-.3491-.0933-.6084l.1439.0862c-.1282-.5287.0124-1.0685.1472-1.4305.138-.385.2836-.5723.3131-1.0471l.0062-.1018c.0154-.0078.0067-.1014.0356-.0564.0261.0349.0497.0616.0719.0827.0443.0422.0833.0627.1236.0811.0797.0358.168.067.2899.2144l.0395.3761c.1309-.4514.4273.2039.573.648.1785.486.1974.7609.6661.6632l-.2014.1906c.3424-.258.1075.3715.6398-.1358l-.0874.2449c1.0733-.2126.2478,1.0125,1.1393,1.0961l-.1599.0799c.2113.0425.4184.1231.3762.3219-.0317.0014-.065.0415-.1256.0404-.1792.847.7792.8034,1.1293,1.2309l-.2844.1682c.4652-.0534.5279.5544.8991.6962l-.1265.0874.2803-.015-.2217.2124c.3024.3528.7899.4895,1.1335.7813Z" fill="#3e4144"/>
    <path d="M74.0706,59.2288s-.0005-.0047.0026-.0106c-.0278.0115-.0207.0136-.0026.0106Z" fill="#3e4144"/>
    <path d="M59.8215,45.6554c.0292.0113.0543.0244.0811.0433-.0216-.0587-.0568-.0356-.0811-.0433Z" fill="#3e4144"/>
  </g>
  <g>
    <polygon points="114.5687 78.2761 114.5992 78.1813 114.3763 78.3389 114.5687 78.2761" fill="#3e4144"/>
    <path d="M113.7812,78.4057c-.0153.0474-.0683.105-.0836.153l.7031-.3973c.1362-.4235-.7115.5266-.6195.2443Z" fill="#3e4144"/>
    <path d="M113.75,78.2879c.0034-.2145-.2474.0328-.3415.1093.197-.1892.1377.208.3415-.1093Z" fill="#3e4144"/>
    <path d="M104.857,71.6716c.0103.006.0285.008.0445.0067-.0086-.0209-.0254-.0201-.0445-.0067Z" fill="#3e4144"/>
    <path d="M101.8522,70.7932l-.198.1967c.7337-.0471.8967.7241,1.4802.9123l-.0914.0522c1.0731.9869,2.4016,1.4673,3.6752,2.173-.0358.0096-.092.0695-.1302.0807.1142-.0337.284-.1268.3311-.0605-.0218.0612-.0962.0884-.1333.0954-.0407.5486.8851.3156.8188.7117.0975.0137.2445-.115.2956-.2591.9631.5949,1.9662,1.2655,3.1023,1.665.0059.0834-.0617.189-.1695.3059,1.2322-.0028,1.8711.8515,2.5988,1.5523.1483-.1336.0431-.2275.2438-.3306-.1098-.3896-.7587.0276-.7778-.4329l.1433-.128c-.0964-.225-.3208.3542-.3503.0269.0258-.1785.1621-.1789.1383-.2145-.4071-.2103-.6801-.6297-1.2967-.5202.164-.3902-.379-.3037-.2751-.7165-.1911.0584-.2595-.0453-.4595.1442-1.1315-1.1235-2.6409-1.8057-3.9075-2.8164-1.0914.1653-1.2171-1.1463-2.0844-1.4962.0125-.0258.032-.0486.0511-.0631-.3509-.0286-.7429-.2226-.956-.5166l-.4412.0772c-1.2241-1.8396-3.1746-2.8444-4.6322-4.4321-.8558-.8653-1.5932-1.7489-2.4222-2.512-.813-.7807-1.7203-1.4373-2.9516-1.8418.0542-.0545.0689-.0988.1362-.082-.6186-.3347-.8638-.9818-1.4462-1.2976l.0551-.0556c-1.62-.6104-2.3298-2.3499-3.9083-2.9436-1.2734-1.3764-2.7811-2.8632-4.2643-4.1997l.1192-.1022c-1.3162-.9567-1.7156-2.6508-2.9228-3.6949-.7948-1.4534-2.8474-1.9872-3.5251-3.5646-.052-1.2628-2.16-1.2894-2.1328-2.5359-.281-2.2778-2.0308-3.3145-3.809-4.4365-.7543-1.7016-2.7167-2.4951-3.0697-4.4234-.9458-.3349-.4793-1.8234-1.1582-2.4712l-.1372.1422c.2788-.6176-1.1051-.1058-.5206-.7932l.0528.0046c.2558-.406-1.0883.2926-.7248-.1071l-.194.1071c-.1776-.134.1862-.168.1597-.3523-.0589-.0335-.3373.2183-.312.0397.71-.5553-.467-.3047.3407-.9146.069.0937.2085-.3787.5343-.2935.0396-.1212-.2121-.3786-.54-.0991-.386.2446-.7891.3668-.9454.75l.2938-.1609c-.2246.2549-.101.1428-.2864.3109.1327.2544-.2342.5702-.275.8525.0067-.0074.013-.0145.0285-.022.4035-.1233.327.1713.3467.2936l-.1229.145c-.2722.283.8007-.1873.2147.1359.4751.3672.8609.9045,1.2498,1.419.2563-.077.274.4112.5818.0087-.3501.4593-.1781.9293-.0553,1.0601-.0455.0254-.0977.0546-.0975.0198-.3725.7066.7774-.0663.2636.7183.5275-.3288.1941.5902.8895.3014-.0867.1144-.1785.1995-.2759.2538.339.4756.5466,1.126.8209,1.5386.6886.0108.4165.967,1.2348.8049.0538.336.0936.9164.5894,1.0681l-.0984.0233c.3239.3498.716.7966,1.2897.7671-.4868.5486-.2475.624-.3055.927.4577.0482.7693.6155,1.3033.8132-.2174.262.3541.2297-.0123.5453,1.5614.5029,2.3493,2.0018,2.6967,3.5818l-.0397.005c.3242-.0188.9123-.2142,1.2996-.2816-.0208.0408-.0844.0894-.1079.0569.2371.1473.0251.6364.2614.7848q-.0635.0488-.1498.0638c.3237.0558.0261.6397.5012.6296l-.0883.0934.2563.0305c-.126.0975-.3162.2441-.3391.1342,1.3135,1.8678,3.4734,3.1142,4.9179,4.9393l-.1705.0367.5052.1561c-.0618.0517-.1055.0618-.1468.0697.1836.6089.9195.7518,1.2435,1.2139-.059.0503-.2302.0911-.2424.2086.5992.015.031.8791.8352.4224-.018.0428-.1586.1904-.2405.2082,1.0081.6449,1.8166,1.5087,2.5118,2.458,1.2527.1317,1.5045,1.4027,2.6701,1.6566l-.1181.1124c1.3074.5213,1.9003,1.8848,2.9545,2.7346.3619.4323.7639.5542,1.1913.9181l-.1267.1593c1.2214.0576,1.0151,1.8476,2.3161,1.8722l-.2335.1619c.3961-.2181.3458.5114.7865-.0797l-.0145.2804c1.1437-.2958.6321,1.131,1.6657,1.1894l-.154.0971c.2534.0395.5155.1231.5346.35-.0355.0028-.0597.0495-.1288.0506.0719.9729,1.1429.8867,1.6847,1.3594l-.2705.197c.5124-.0707.7799.6081,1.2446.7653l-.1181.0997.3154-.0186-.1901.2411c.4479.3957,1.0489.5471,1.5205.8888Z" fill="#3e4144"/>
    <path d="M106.7858,74.2431s-.0015-.0052.001-.0116c-.0305.0103-.0218.0132-.001.0116Z" fill="#3e4144"/>
    <path d="M64.9669,32.2211c-.0016-.0329.0003-.0625.0068-.0957-.0469.0413-.0098.0689-.0068.0957Z" fill="#3e4144"/>
  </g>
  <g>
    <polygon points="80.7237 80.2 80.8207 80.2139 80.6124 80.0441 80.7237 80.2" fill="#3e4144"/>
    <path d="M80.3877,79.5452c-.0485-.007-.1169-.045-.1659-.0519l.5633.5491c.4333.0625-.6867-.5397-.3974-.4971Z" fill="#3e4144"/>
    <path d="M80.4894,79.5037c.2016-.0242-.098-.2069-.1952-.2776.2306.1443-.1571.1439.1952.2776Z" fill="#3e4144"/>
    <path d="M84.3115,71.0946c-.0028.0096.0001.0255.0056.0392.0172-.0098.0121-.0242-.0056-.0392Z" fill="#3e4144"/>
    <path d="M84.3605,68.4046l-.2349-.1503c.2303.6286-.4523.8508-.4812,1.3742l-.0721-.0732c-.6419,1.0374-.7257,2.2493-1.073,3.4166-.0181-.0297-.0887-.0714-.109-.1029.0608.0944.1915.2299.1411.2776-.063-.012-.1076-.0728-.1236-.1039-.5235.0275-.0602.8-.4474.7884.0131.0857.1721.1975.3201.2248-.298.8993-.6579,1.8417-.736,2.8588-.0762.0151-.193-.0301-.3312-.1084.3354,1.0569-.2882,1.7067-.746,2.4171.1653.1098.2245.0081.3755.1664.3343-.1423-.2322-.6444.1931-.7182l.1585.1066c.1841-.1103-.4181-.2302-.1203-.296.1738,0,.2112.1165.2379.0917.0859-.3741.4033-.6584.1341-1.1734.4085.0932.1809-.3617.5939-.3223-.1061-.1568-.0283-.2281-.2579-.3764.7671-1.093.9783-2.4823,1.6031-3.6808-.4287-.9168.7576-1.1746.8538-1.9637.0273.008.0537.0223.0722.0373-.0659-.3069.0115-.6679.2288-.8849l-.1849-.3722c1.4252-1.2442,1.8143-3.0639,2.9287-4.4924,1.1318-1.6959,2.5096-2.9414,2.583-5.1772.0651.0407.1102.0483.1125.1086.1501-.5722.6593-.8762.7875-1.4231l.0666.0412c.1033-1.4889,1.4976-2.3324,1.563-3.7987.8741-1.3022,1.7701-2.8295,2.4953-4.3377l.1297.0885c.4569-1.2892,1.8395-1.9135,2.3785-3.1421,1.062-.9191.8246-2.8307,2.0198-3.6772,1.1229-.2448.408-2.127,1.5359-2.3039,1.9447-.6169,2.2427-2.3522,2.6704-4.0954,1.2466-.9516,1.3164-2.8184,2.9134-3.4326-.014-.9011,1.4547-.711,1.814-1.4099l-.1688-.101c.6334.1572-.2521-1.0014.5384-.5816l.0124.0478c.4384.1688-.5981-.9287-.1314-.6631l-.1551-.1576c.0633-.1787.2064.1416.3611.0908.0113-.0576-.2977-.2695-.132-.2733.711.5537.1244-.4628.9133.171-.0611.0753.3986.1317.4249.4353.1191.0179.2675-.2441-.0806-.4973-.3352-.31-.5676-.6532-.9545-.7376l.233.2397c-.2946-.1639-.1573-.0696-.3632-.2111-.1836.1563-.5764-.1259-.8388-.1203.0086.0049.0168.0095.0283.0223.234.3432-.0502.3184-.1525.3543l-.1665-.0884c-.3351-.2013.4143.6886-.0538.2126-.1777.4802-.5335.9056-.8682,1.3305.1486.2167-.279.3067.1748.5196-.5166-.2414-.883-.0181-.9569.1142-.037-.0367-.0794-.0786-.0487-.0841-.7419-.2191.3086.6844-.5478.352.4605.4187-.4609.2664.0173.8395-.1291-.059-.2338-.1272-.3131-.2052-.3132.3766-.8239.6647-1.1022.9743.2119.6121-.7267.5242-.3121,1.2274-.2783.1037-.7746.2393-.7468.7032l-.0528-.0831c-.2049.3434-.4739.7632-.2601,1.2643-.6465-.3394-.6353-.1157-.9235-.1168.1056.4107-.2953.7802-.288,1.289-.3036-.1473-.0835.3531-.4843.0833.0844,1.4711-1.014,2.3908-2.2788,2.9809l-.0178-.0342c.1252.2822.4983.7686.6855,1.0959-.0433-.0115-.1076-.0591-.0863-.085-.0537.2317-.5601.1269-.6149.3581q-.0644-.0475-.1062-.1206c.0566.2923-.5626.1283-.3975.5422l-.1124-.0618.057.2293c-.1284-.0942-.3218-.2364-.2313-.2746-1.2092,1.4758-1.6406,3.5494-2.7963,5.1118l-.0872-.1429.0195.4642c-.0662-.0459-.0891-.0824-.1093-.1172-.4904.2533-.3862.9169-.7001,1.2703-.0639-.0439-.1547-.1871-.2643-.18.1744.5249-.7802.1605-.1124.7964-.0439-.0091-.2208-.1096-.2632-.1788-.2636.9774-.8058,1.8028-1.4495,2.5465.2632,1.1145-.8285,1.5018-.7128,2.5547l-.1372-.0881c-.0809,1.2179-1.1878,1.8937-1.6559,2.9252-.293.3697-.286.7388-.514,1.1483l-.1819-.0915c.2716,1.0648-1.4235,1.1007-1.0905,2.2372l-.2131-.1851c.3108.3212-.3765.3607.287.6764l-.2653.018c.5725.958-.8935.6684-.6667,1.577l-.1311-.1233c.0315.2252.0246.4631-.18.5052-.0121-.0306-.0618-.0465-.0813-.1065-.8774.1729-.512,1.0957-.8214,1.6115l-.2531-.213c.1961.4352-.3717.7379-.3919,1.1607l-.1237-.0916.1005.2721-.2739-.1387c-.2488.433-.2305.9721-.4229,1.4197Z" fill="#3e4144"/>
    <path d="M82.4078,73.0427s.0045-.0018.0111-.0004c-.0174-.0251-.0179-.0173-.0111.0004Z" fill="#3e4144"/>
    <path d="M107.9253,30.4353c.0287-.0063.0554-.0091.0868-.0082-.0511-.0359-.064.0015-.0868.0082Z" fill="#3e4144"/>
  </g>
  <g>
    <polygon points="124.8326 69.3294 124.7321 69.3063 124.8733 69.5502 124.8326 69.3294" fill="#3e4144"/>
    <path d="M124.8531,70.2505c.0498.0125.1048.0689.1554.0813l-.328-.7863c-.4457-.1059.4718.7766.1726.705Z" fill="#3e4144"/>
    <path d="M124.7177,70.3005c-.2359.0154-.0069.2863.0597.3911-.1733-.2146.2559-.1833-.0597-.3911Z" fill="#3e4144"/>
    <path d="M113.5866,68.7411c.0127.0084.0344.0139.053.0152-.0124-.0248-.032-.0269-.053-.0152Z" fill="#3e4144"/>
    <path d="M110.2757,66.6066l-.2686.0806c.7576.4658.841,1.4166,1.561,1.8761l-.1078.0268c.6547.7829,1.4658,1.3264,2.2857,1.804.8238.4749,1.6709.9177,2.5243,1.3777-.0414.0073-.096.0687-.1399.0774.1313-.0249.3171-.1165.3895-.0387-.0118.0664-.0957.0909-.1394.0956.0905.6209,1.1596.3969,1.2038.8135.1243.0131.2575-.1324.2719-.2904.6702.2994,1.383.5383,2.1028.6444.7491.0964,1.3981.0536,1.8839-.2956.0686.0454.1164.1619.1453.3182.405-.5082.7545-.8521,1.2023-1.2228.4379-.3636.939-.741,1.395-1.1928-.1197-.1616-.242-.0363-.3186-.2594-.4369.1361-.1193.8723-.6257.8723l-.1026-.1646c-.2578.0883.2992.3795-.0572.3794-.1806-.0478-.1458-.1928-.1892-.1716-.3345.4139-.7891.5411-.9523,1.1312-.2606-.3159-.4494.1703-.6918-.1722-.0543.181-.1576.1488-.1577.4281-.6435-.0096-1.6319-.209-2.5159-.5126-.9086-.3181-1.8339-.7934-2.6845-1.4217-1.2698.0562-1.7066-1.4597-2.7565-1.9869.0119-.0266.0324-.0486.0533-.0613-.4148-.0922-.8925-.3979-1.1273-.784-.168-.0107-.3344-.0266-.5019-.0475-.325-.6195-.6166-1.2069-.8257-1.7967-.197-.5621-.3209-1.2069-.4398-1.8886-.2213-1.3614-.3709-2.7934-.2764-4.2178.0466-1.613.2488-3.1437.3978-4.5791.0729-.6676.1781-1.458.1914-2.2236.0164-.7725-.0222-1.5577-.1555-2.3855.0751.0166.1212-.0018.1406.0845-.0047-.9306.4235-1.698.435-2.5695l.0761.0185c-.2054-2.2459,1.1013-4.2633,1.1992-6.4023,1.0114-2.2901,2.2799-4.8545,4.1336-6.8046l.1029.1187c.3267-.4257.7157-.7891,1.1716-1.0546.2206-.1421.4454-.2757.671-.404.2375-.0992.4641-.2036.7134-.2654.9776-.2887,1.9797-.3319,2.9835-.5166,1.0452.1298,2.1027.0042,3.1928.2428.5413.1114,1.0786.3588,1.4727.7823.4035.4177.6035.9927.6285,1.5515-.2078.7422.09,1.4448.3321,2.236.2412.7758.4153,1.5952-.0395,2.2079-.7082,1.278-1.0386,2.46-1.3202,3.6677-.2721,1.2215-.6165,2.503-1.1594,3.8073-.9216.8623-1.7095,1.8058-2.6188,2.6726-.9005.8626-1.9968,1.5411-3.2586,1.6751-.4058.4744-1.033.5816-1.6853.5449-.6453.0051-1.3031-.1349-1.8714.097l.0828.1797c-.5282-.5033-.8492.9835-1.2498.1579l.0411-.0449c-.2683-.4239-.4449,1.0874-.6424.5721l-.0246.2222c-.2925.0858-.0508-.2464-.2795-.3172-.0826.0338-.0151.4031-.1989.2903-.0537-.9005-.7248.1818-.7214-.8299.147.0027-.2155-.3965.1168-.6021-.0888-.1058-.5237-.0623-.5174.3669-.0714.4507-.2914.8382-.0175,1.2045l.0812-.3301c.0823.3335.0678.1673.0917.4167.3995.0521.4457.5359.7547.7413-.0032-.0098-.0062-.0191-.0017-.036.2026-.3849.4827-.1776.6515-.132l.0768.1797c.133.3783.4157-.7897.3446-.1187.8375-.2296,1.7792-.4016,2.6809-.6551.0627-.2634.6898-.177.3547-.5826.3752.4569,1.096.3644,1.3326.2541.0095.0514.0213.1132-.025.107.7435.4681.2919-.8465,1.0785-.2274-.1886-.5756.8755-.2018.7756-.9777.1158.0952.1924.1956.2257.3029.392-.1809.8047-.3714,1.2029-.5552.41-.1708.791-.3672,1.0936-.58.1813-.7777,1.3561-.7739,1.257-1.6855.4125-.19,1.1738-.4864,1.3453-1.1695l.0316.1071c.2071-.2886.4418-.6116.6125-.9426.1501-.3483.2309-.7068.1625-1.0296.7215.2175.7768-.1185,1.115-.2869-.0307-.297.0863-.644.2182-1.0155.1074-.3839.2124-.803.2042-1.1887.3683.0102.0584-.6056.5237-.5007-.1338-1.1448-.1107-2.1837.0558-3.2566.162-1.0705.4705-2.1467.753-3.2589l.0362.0296c-.2774-.2696-.894-.5394-1.2641-.7603.0388-.0315.1185-.0388.1222.0182-.1351-.3539.2725-.7929.0865-1.1736.0784-.0162.0783-.0167.1673.0296-.2871-.2988.1436-.9163-.4146-1.2408l.1034-.0813c-.1016-.0732-.2155-.1444-.3207-.2096.1408-.0741.3562-.1832.4059.0105-.2318-.4754-.6027-.9817-1.0304-1.3082-.4201-.3617-.8895-.5973-1.3515-.774-.9317-.3449-1.8546-.4191-2.7374-.3887-1.7719.0966-3.4054.5218-5.0216,1.3075l.046-.1988c-.1668.1981-.3371.3862-.449.5907-.0413-.0694-.0378-.1201-.0321-.1684-.4113.128-.7358.4173-1.031.7186-.2944.3051-.5129.6765-.8356.9137-.0511-.0583-.0665-.254-.2105-.2408-.143.6969-1.0933.3039-.6274,1.1342-.0492-.0076-.214-.1281-.228-.2223-.8965,1.428-1.7843,2.8046-2.634,4.2036.1232,1.5408-1.082,2.6405-.899,4.1608l-.1531-.0566c-.0039,1.8387-1.0208,3.4877-1.256,5.3166-.2094.7321-.1028,1.2708-.2186,2.02l-.2036-.0138c.5617,1.3796-1.0921,2.555-.4152,4.0057l-.2642-.1243c.395.2562-.2225.8087.5128.785l-.2379.2194c.9145.9408-.5181,1.6348.1138,2.7581l-.1741-.072c.1329.2949.2496.6347.0929.856-.0258-.0336-.0768-.0166-.1238-.0859-.6711.9463.1326,1.9592.1855,2.9238l-.3309-.0848c.4139.44.1471,1.3396.4143,1.9389l-.1563-.0156.2612.2807-.3018.0574c.1167.8172.5355,1.5471.9146,2.2604Z" fill="#3e4144"/>
    <path d="M116.3803,71.9059s-.0031-.006-.0016-.0128c-.0348.0089-.0234.0129.0016.0128Z" fill="#3e4144"/>
    <path d="M113.7773,54.5996c-.0419-.0189-.0765-.0384-.1114-.064.0091.0624.0757.0499.1114.064Z" fill="#3e4144"/>
  </g>
  <g>
    <polygon points="161.0177 4.1277 161.09 4.0461 160.7921 3.9726 161.0177 4.1277" fill="#3e4144"/>
    <path d="M160.1402,3.4243c-.03.0439-.1064.066-.137.1096.3059.0472.5829.1348.8868.2418.2947-.4141-.9299-.1176-.7498-.3514Z" fill="#3e4144"/>
    <path d="M160.1325,3.2498c.0496-.2729-.2968-.1766-.4173-.1518.2668-.0767.1069.3673.4173.1518Z" fill="#3e4144"/>
    <path d="M146.4247,4.8905c.0086-.0136.014-.0362.0154-.0556-.0254.0143-.0275.0346-.0154.0556Z" fill="#3e4144"/>
    <path d="M145.458,8.7038l.2335.1543c-.155-.8316.6611-1.2645.8474-1.9719l.0558.0921c1.0476-1.4337,1.7988-2.9812,3.2337-4.2209-.0072.0412.0306.1146.0247.1584.0174-.1306.0016-.3368.0977-.3757.0548.0368.0465.1246.0359.1668.558.183.8497-.8261,1.2359-.6302.0787-.0873.0469-.2826-.0729-.3888,1.3578-.7605,2.9876-1.0612,4.6817-1.1553.0692.077.0599.2025.0111.3544,1.5011-.522,3.1523.569,3.9308,2.0058.203-.055.0682-.2557.3385-.2322-.071-.2973-.3291-.4491-.5702-.5576-.2546-.1006-.4732-.1903-.5437-.4872l.1698-.1047c-.2147-.318-.3524.3275-.4975-.0813-.0265-.2138.1691-.1747.1219-.2258-.6584-.3774-1.3382-.86-2.0984-.5895-.0484-.4565-.7044-.1884-.8895-.6143-.203.1267-.3743.0778-.4687.3384-1.1525-.2234-2.3563-.0799-3.465.3412-.549.2018-1.1154.4884-1.5676.7946l-.7137.4473-.6829.4912c-.1986.6086-.6026.9621-1.1176,1.2758-.4723.3465-1.0424.6795-1.3006,1.2532-.0272-.0108-.0499-.0305-.0631-.0513-.1075.4264-.3458.9436-.6838,1.2797.0216.171.0386.3365.0683.5058-1.0162.994-1.6613,2.2748-2.1558,3.5766-.4963,1.309-.8482,2.6553-1.3167,3.9621-.9415,3.0151-1.9159,5.5967-1.4292,8.7311-.0749-.0172-.1212-.0006-.1398-.0827.0083.882-.409,1.6118-.3861,2.4449l-.0767-.0157c.3085,2.1069-.7847,4.1479-.3898,6.1893-.4433,2.3357-.7719,5.0052-.9267,7.5226l-.1546-.0279c.0471,2.0374-1.0472,3.8511-1.0533,5.8782-.6258,2.0051.362,4.3248-.3581,6.3333-.9101,1.1934.5324,3.0582-.3857,4.1725-1.4671,2.343-.9385,4.8333-.4487,7.3706-.6426,2.2444.2637,4.6157-.7881,6.7551.4809,1.0915-.8657,2.1532-.7889,3.335l.1971-.0277c-.6184.3775.7601.9929-.1341,1.1925l-.0366-.0469c-.4611.1912,1.0115.5883.4736.6864l.2167.0509c.0447.2729-.2511.0147-.3533.2159.022.0799.398.0569.2608.211-.9014-.0255.1492.6707-.8619.6219.0102-.1472-.4076.2047-.596-.14-.1101.0873-.0915.542.3402.5296.4526.0684.8371.2702,1.2075.0198l-.3275-.0768c.3377-.0703.1705-.0591.4212-.0756.0687-.3542.5537-.3698.7712-.6121-.0099.0019-.0193.0037-.036-.0013-.385-.2016-.1325-.4276-.0662-.5621l.1884-.0428c.3919-.0573-.7258-.4578-.0714-.3036-.1123-.7364-.0522-1.5679.0038-2.3783-.2426-.1321.0708-.6184-.4279-.4778.5683-.1616.7544-.7531.7504-.9785.0509.0124.1093.0265.0859.0598.7502-.3779-.6237-.5662.2838-.9041-.6132-.1127.2528-.7226-.4541-1.0111.1418-.039.2673-.0457.3759-.0185.0756-.7305.367-1.5198.447-2.136-.4975-.5757.3521-1.2584-.3531-1.779.1932-.3629.5616-.9433.3088-1.4967l.0872.0596c.011-.5972.0389-1.3417-.3929-1.7939.7344-.1067.6164-.3765.8713-.6104-.2929-.4279-.1159-1.2171-.3576-1.8515.3395-.0592-.0908-.5128.3925-.4949-.7495-1.7857-.2097-3.8511.701-5.5734l.0311.03c-.2366-.2638-.7872-.6001-1.0995-.8779.0444-.0187.1236-.0068.1154.043-.0514-.3405.4549-.5943.4046-.9339q.0792.012.1488.0742c-.1784-.3343.4559-.5935.1302-1.0017l.1291-.0053-.1493-.2529c.1574.0245.3947.062.328.1795.4958-2.8059.0391-5.8291.5618-8.714l.1353.1269-.1916-.5992c.0793.0141.1145.0462.1465.078.3653-.6788.021-1.4842.1915-2.172.0762.0142.214.1415.3149.0563-.3564-.5778.6791-.7479-.1776-1.1354.045-.018.2485-.0052.313.0578-.0941-1.4792.1505-2.9505.5145-4.373-.6285-1.3299.3261-2.5581-.1187-3.911l.1599.0322c-.3008-1.7101.5871-3.3268.7632-5.0187.1862-.6836.0783-1.1861.19-1.8864l.2032.0178c-.5608-1.313,1.1299-2.3436.5127-3.7208l.2565.1346c-.3868-.2677.2833-.7131-.4506-.7743l.258-.1757c-.794-1.0169.7273-1.423.333-2.5612l.1546.1039c-.0701-.2969-.1021-.6359.0993-.7983.0174.0368.0706.0341.1005.1083.8613-.6744.3681-1.7747.6545-2.6483l.2818.1919c-.2397-.5302.3417-1.1877.3769-1.7799l.1307.0844-.1-.3458.2902.1005c.2707-.6864.3039-1.4294.5886-2.1045Z" fill="#3e4144"/>
    <path d="M149.9866,2.7068s-.0063.0005-.012-.0035c-.004.0356.0034.0267.012.0035Z" fill="#3e4144"/>
    <path d="M136.6586,75.282c-.0206.0333-.0415.0605-.0685.0877.0626-.0028.053-.0592.0685-.0877Z" fill="#3e4144"/>
  </g>
  <g>
    <polygon points="193.8333 17.0958 193.7695 17.0024 193.6092 17.2641 193.8333 17.0958" fill="#3e4144"/>
    <path d="M192.7681,17.6845c.0318.0467.0174.1248.0498.172l.6215-.747c-.285-.4172-.4836.8539-.6712.575Z" fill="#3e4144"/>
    <path d="M192.5824,17.6111c-.2457-.1708-.3433.1787-.399.297.0826-.2706.4555.0784.399-.297Z" fill="#3e4144"/>
    <path d="M171.1151,18.0134c.0228-.002.0527-.0121.0754-.0234-.0385-.0105-.0628.0007-.0754.0234Z" fill="#3e4144"/>
    <path d="M165.5286,19.2635l-.055.2784c1.0386-.5071,2.2237-.0185,3.3263-.2479l-.0736.0986c2.8056.0733,5.3864-.4214,8.1666-.6623-.043.03-.0568.1119-.1012.1446.1331-.098.28-.2771.4308-.255.0399.0613-.0407.1292-.0887.158.5926.4525,1.7227-.3103,2.0939.0396.1647-.0506.2356-.2431.142-.3873,2.1767-.1419,4.5058-.2548,6.7205-.6364.1074.0619.128.1867.1004.3453,1.8885-.7637,3.879-.4869,5.8203-.3856.0725-.1967-.1999-.2055-.0108-.4107-.6262-.2385-1.1377.4907-1.707.1404l.0708-.1892c-.4128-.1174-.0787.4768-.5083.2376-.1699-.1563.0397-.2409-.0388-.2541-.8741.0863-1.7883-.0748-2.6075.3924-.2076-.4082-.9401-.0046-1.2675-.3933-.2247.164-.4523.1248-.5355.3974-3.0642-.1877-6.1884.2469-9.3252.2506-1.4589.8091-3.2273-.118-4.9665.1701-.0123-.0278-.0106-.0579.0008-.0813-.5655.2029-1.3921.3049-2.0711.2157l-.5701.3419c-4.0874-.6414-8.2495-.1004-12.3962-.3322-4.7102-.1315-8.8437-.644-13.4123.4712.0048-.0768-.0329-.119.085-.1533-1.3206.1796-2.5305-.0869-3.7738.0988l.0027-.0783c-3.0812.7019-6.4362.0135-9.405.7672-3.629-.0129-7.73.125-11.5667.3868l.0065-.1571c-3.0675.3804-6.0496-.4071-9.1115-.1107-3.1576-.3093-6.4705.9943-9.6572.5624-1.9777-.7451-4.5398.9435-6.3985.1679-3.8121-1.1551-7.4846-.3376-11.2723.4321-3.5066-.3913-6.9911.7517-10.3919-.089-1.6012.5781-3.3888-.6618-5.1751-.4817l.0658.1941c-.6478-.5843-1.4221.8413-1.8313-.0329l.0672-.0404c-.3442-.4433-.779,1.0576-.9908.53l-.0528.2203c-.411.0676-.0512-.249-.3694-.3338-.1192.0287-.0415.4014-.292.2777-.0628-.9004-1.0059.2053-1.044-.8063.225-.0022-.3564-.3889.1468-.6057-.1449-.1023-.834-.0454-.7679.3837-.0545.4565-.3201.8564.1023,1.205l.0811-.3328c.1443.3306.1089.1649.1618.4134.548.0385.6259.5205,1.0205.7168-.004-.0097-.0079-.0189-.0021-.036.2645-.4007.638-.1681.8511-.1135l.087.1841c.1328.3857.6155-.762.4555-.0968,1.1118-.1759,2.3881-.1807,3.6321-.2011.1717-.2537.9525.0137.6759-.47.3171.5511,1.2442.6821,1.5878.6574-.0123.0519-.0264.1113-.0804.0911.6742.7123.7834-.6731,1.4175.1996.0912-.6217,1.1373.187,1.4832-.5473.0786.1371.1056.2614.0788.3721,1.1252.0016,2.3704.2118,3.3228.2293.8073-.5535,1.9724.225,2.6634-.5347.5814.1528,1.5226.4562,2.3283.145l-.0775.0931c.9124-.0536,2.0523-.107,2.6729-.5875.2783.7169.6713.5682,1.0686.7939.6055-.3411,1.837-.2578,2.7632-.5723.1466.3302.7655-.1503.8194.3318,2.594-.9615,5.8191-.6801,8.6109-.0127l-.0398.0348c.3575-.2697.7656-.8604,1.1283-1.207.0367.0415.0336.1216-.0435.1201.5069-.0966.9886.3718,1.4949.2759q-.0031.0801-.0843.1575c.4733-.2215.9897.3717,1.5466-.0097l.0332.127.355-.1838c-.0065.1594-.0169.3995-.2087.3503,4.365.0951,8.8557-.7999,13.3359-.7488l-.1619.1538.8642-.2846c-.0035.0806-.0442.1205-.0851.1571,1.1104.2536,2.2512-.2157,3.3302-.1641-.0038.0776-.1645.2346-.0122.32.791-.4477,1.2908.545,1.676-.3644.0378.0414.0663.2442-.0138.3183,2.2154-.3348,4.4952-.3548,6.7343-.2441,1.8495-.8475,3.9433-.1408,5.8677-.8213l-.0069.1631c2.4958-.6123,5.1628-.0422,7.7572-.198,1.0791.0486,1.8045-.1547,2.8876-.1817l.0303.2028c1.812-.801,3.8433.637,5.733-.2423l-.1272.2783c.2887-.4326,1.153.1344,1.0298-.5969l.3391.2175c1.2786-.9875,2.3588.4133,3.9338-.2379l-.1016.1755c.4192-.141.9087-.2552,1.2229-.0999-.0484.0259-.0249.0769-.1244.124,1.3285.6695,2.7861-.1094,4.1782-.102l-.1535.3261c.6677-.3891,1.9062-.0514,2.7882-.2371l-.0518.1527.4446-.2206.0156.3068c1.1511.0055,2.2306-.274,3.3533-.3231Z" fill="#3e4144"/>
    <path d="M177.1337,18.778s-.0085-.0031-.0124-.0096c-.0341.0271-.0174.024.0124.0096Z" fill="#3e4144"/>
    <path d="M62.4467,21.9048c-.0532-.0177-.0972-.0363-.1418-.0608.0114.0621.0965.0478.1418.0608Z" fill="#3e4144"/>
  </g>
  <g>
    <polygon points="196.1781 52.8121 196.0683 52.8245 196.2411 53.0669 196.1781 52.8121" fill="#3e4144"/>
    <path d="M196.2829,53.9423c.0547-.0056.1189.0409.1743.0349l-.4233-.8375c-.4883.05.5758.7683.249.8027Z" fill="#3e4144"/>
    <path d="M196.1425,54.0632c-.2529.1252.0151.3605.0975.4606-.2054-.1894.2634-.3385-.0975-.4606Z" fill="#3e4144"/>
    <path d="M184.1881,69.5373c.0146-.0133.0294-.0369.0384-.0576-.0329.0112-.043.0328-.0384.0576Z" fill="#3e4144"/>
    <path d="M179.8086,71.208l-.1949.2043c.5908.0764,1.0874.2729,1.6542.3818.5561.122,1.182.1029,1.6772-.1662l-.0434.1145c1.3996-.3874,2.3771-1.3559,3.2297-2.2834.8707-.9359,1.6571-1.9417,2.485-2.9535-.0067.0499.0428.1165.0371.1694.0174-.1585-.0153-.3819.0988-.4676.0701.0158.0664.117.0557.1694.7245-.0828.8797-1.3894,1.3711-1.4099.0642-.1503-.0367-.3274-.2022-.3573,1.2367-1.6105,2.4943-3.3928,3.3112-5.3046.106-.0479.2204.0054.338.115.3364-1.8712,1.4887-3.2732,2.4028-4.8251-.1444-.1487-.2673.0686-.37-.1786-.4693.3959-.0503,1.1526-.6147,1.4405l-.1341-.1485c-.2848.2717.3812.2958-.0179.5226-.2127.0577-.1912-.1506-.2381-.0947-.3255.7352-.892,1.3586-.9023,2.242-.4452-.061-.4806.7176-.968.7509.024.2636-.1322.4087.0495.6271-1.7418,2.2004-3.2637,4.6682-5.3208,6.7165-.3881,1.5144-2.265,2.0129-3.277,3.1306-.025-.0161-.0415-.0413-.0474-.066-.2666.4495-.8384.9211-1.3783,1.0121-.1007.1591-.2137.3092-.3416.4581-1.7409.0827-2.9066-1.0641-3.8902-2.6131-.491-.7612-.9099-1.6117-1.3505-2.4953-.4339-.875-.852-1.7581-1.2265-2.6615-1.8158-4.049-3.0511-7.7752-5.9249-11.1623.0711-.0294.0936-.0799.1727.0051-.7029-1.0411-.9581-2.1835-1.6338-3.1571l.0716-.0319c-1.8925-2.3069-2.6453-5.4529-4.537-7.6431-.6331-1.3259-1.3266-2.7138-2.0934-4.191l-.478.2605c1.0363,1.7057,2.066,3.5725,2.8088,5.4941l-.1519.0405c.6036,1.3106.7725,2.7607.6852,4.1496-.0691,1.4052-.4069,2.7024-.7649,4.0366-.6554,1.2545-1.1965,2.6023-2.1579,3.7776-.9153,1.17-2.3781,2.1173-3.9177,2.0051-.9406-.238-1.9117-.1409-3.0064-.2571-.5275-.0907-1.083-.1882-1.5297-.4556-.4765-.2165-.8319-.582-1.0452-1.0085-.9139-1.5137-1.8029-2.986-2.6955-4.4642-.8852-1.4593-1.8002-2.9872-2.5017-4.7071-.1016-1.6809-.354-3.3214-.3706-4.9954-.0223-1.6473.269-3.4422,1.4061-4.7216.0973-.8147.7421-1.4643,1.4913-1.8606.7547-.4108,1.5626-.5728,2.2575-.9246l-.123-.1616c.3722.167.5929-.1108.8568-.3444.2543-.2336.5475-.399.7598.0253l-.057.0455c.1653.2007.3116-.0534.4907-.3064.1724-.2595.371-.4714.445-.1992l.0807-.2123c.4289-.012.0183.2453.3068.391.1173-.0019.1287-.3824.3494-.2031-.085.4321.1389.47.3758.5133.2282.0601.452.16.2123.6017-.153-.075.0408.456-.3896.4811.0516.1167.439.344.6823-.0189.3178-.3273.7803-.4816.6595-1.0076l-.267.2197c.0714-.3526.0039-.1979.0976-.435-.4791-.3417-.351-.817-.7485-1.1726.0014.0108.0028.0211-.0099.0347-.4338.2536-.78-.0482-1.0342-.1499l-.077-.195c-.141-.4168-.7915.6937-.5599.0444-1.3322.1171-2.7185.5089-3.8918,1.2463-.0354.3016-.8702.5848-.3409.7943-.5968-.2606-1.4911.3976-1.7073.7485-.0312-.0434-.0666-.0935-.0096-.1295-1.0632.2072.0312,1.0709-1.0638,1.2216.4826.3648-.7425,1.0719-.1727,1.696-.1556.0307-.2823.0175-.3773-.0474-.4151,1.1416-.8463,2.4049-.9557,3.389.4652.8653-.3455,2.0103.4326,2.6971-.1297.5816-.3881,1.5905.0494,2.3609l-.1022-.0655c.1688.9126.4711,2.043,1.1094,2.5048-.6128.455-.3848.8109-.455,1.2594.2684.2394.469.6628.7132,1.112.2637.4415.5147.9303.8707,1.2769-.2254.2816.4934.6145.0957.893,1.0864.9279,2.0009,2.0421,3.0988,3.1125,1.0757,1.0725,2.3152,2.1481,3.8214,2.8876l-.0547.0227c.4913-.1781,1.0354-.6006,1.434-.9573.0329.0435.0222.1231-.0571.1169.5134-.0766,1.0221.4674,1.56.272.0042.0801.0048.0801-.0758.1674.465-.2754,1.146.2526,1.6506-.3073l.0721.112c.1112-.088.2103-.2001.3104-.3011.0477.1523.1172.3832-.103.413,2.4143-.75,4.1493-2.7781,5.0495-4.8985.9444-2.1387,1.147-4.5127.9826-6.7238l.1658.1517c-.1181-.2837-.2272-.5635-.3632-.8332.0804-.0063.1251.029.1667.0653.1221-1.15-.5944-2.1699-.8564-3.1756.0749-.0202.2719.0857.309-.0839-.6548-.5983.0954-1.4015-.8903-1.4296.0254-.0493.2038-.1505.3009-.104-.7954-1.3688-1.5694-2.7236-2.3186-4.0863l-1.4683.8002c.253.5397.4929,1.0854.7223,1.6328,1.519,1.1996,1.739,3.2839,3.1382,4.6198l-.1497.0652c1.5711,1.8505,2.1501,4.3608,3.3517,6.4936.3977.9366.8781,1.4628,1.3461,2.3695l-.1701.1142c1.4631,1.1865,1.0015,3.5373,2.5674,4.7552l-.3025.0139c.5077.0556.3525,1.036.9596.6118l-.0564.3825c1.4129.6518.5967,2.1799,1.8288,3.23l-.1995-.0093c.2988.2936.6025.6584.5919.9928-.0432-.0296-.0793.0126-.1626-.0511-.0571,1.4194,1.2441,2.3125,1.8097,3.4951l-.3562.0129c.6272.3893.815,1.6035,1.4031,2.2517l-.1575.0324.4053.2567-.2545.1719c.5817.9644,1.4739,1.6712,2.4279,2.2107Z" fill="#3e4144"/>
    <path d="M188.8079,66.3767s-.0078.0035-.015.0016c-.0028.0418.0058.0284.015-.0016Z" fill="#3e4144"/>
    <path d="M155.6682,31.5258c.0583.0392.1047.0755.149.1176.0078-.0633-.0988-.0863-.149-.1176Z" fill="#3e4144"/>
  </g>
</svg>